<svg width="220" height="29" viewBox="0 0 220 29" fill="none" xmlns="http://www.w3.org/2000/svg">
<path d="M0.163086 0.642578C1.53027 0.697266 2.35742 0.724609 2.64453 0.724609H4.12109C4.8457 0.724609 5.42676 0.669922 5.86426 0.560547L5.84375 28H0.163086V0.642578ZM13.7393 28C13.8213 27.5352 13.8623 27.0293 13.8623 26.4824V0.724609H17.9639L28.833 17.8281V2.11914C28.833 1.36719 28.7646 0.902344 28.6279 0.724609H34.165C34.0967 1.27148 34.0625 1.87305 34.0625 2.5293V28H29.7969L19.0918 11.5732V28H13.7393ZM55.8213 16.208C55.165 16.1396 54.3174 16.1055 53.2783 16.1055H47.0645V28H41.4453V0.581055C41.8145 0.608398 42.2383 0.628906 42.7168 0.642578L44.2344 0.683594C45.2734 0.710937 46.3535 0.724609 47.4746 0.724609C50.8379 0.724609 54.0508 0.669922 57.1133 0.560547C56.9629 1.76367 56.8877 3.37012 56.8877 5.37988C56.8877 5.59863 56.9014 5.7627 56.9287 5.87207L56.8877 5.93359C56.1631 5.72852 55.1514 5.62598 53.8525 5.62598H47.0645V11.2656H53.0527C54.5566 11.2656 55.459 11.2246 55.7598 11.1426L55.8213 16.208ZM64.6396 24.7598C63.3955 23.5703 62.4111 22.1416 61.6865 20.4736C60.9756 18.8057 60.6201 16.9805 60.6201 14.998C60.6201 13.002 60.9551 11.1152 61.625 9.33789C62.2949 7.56055 63.252 5.99512 64.4961 4.6416C65.7402 3.28809 67.2441 2.21484 69.0078 1.42188C70.7715 0.615234 72.7471 0.211914 74.9346 0.211914C78.708 0.211914 81.8867 1.40137 84.4707 3.78027C87.2324 6.32324 88.6133 9.75488 88.6133 14.0752C88.6133 18.2588 87.1914 21.7383 84.3477 24.5137C82.5977 26.2227 80.5127 27.3984 78.0928 28.041C76.9033 28.3555 75.5088 28.5127 73.9092 28.5127C72.3232 28.5127 70.6895 28.1846 69.0078 27.5283C67.3398 26.8721 65.8838 25.9492 64.6396 24.7598ZM66.3213 14.7109C66.3213 15.9824 66.5332 17.1514 66.957 18.2178C67.3809 19.2842 67.9688 20.2002 68.7207 20.9658C70.3203 22.5791 72.3779 23.3857 74.8936 23.3857C77.2861 23.3857 79.207 22.6133 80.6562 21.0684C82.1328 19.4688 82.8711 17.2881 82.8711 14.5264C82.8711 11.9287 82.167 9.76172 80.7588 8.02539C79.2412 6.16602 77.1631 5.23633 74.5244 5.23633C71.9678 5.23633 69.9375 6.17969 68.4336 8.06641C67.0254 9.83008 66.3213 12.0449 66.3213 14.7109ZM102.723 17.3975C102.312 17.4248 101.875 17.4385 101.41 17.4385C100.945 17.4385 100.255 17.4043 99.3389 17.3359V28H93.9043V0.581055C95.8184 0.334961 98.1699 0.211914 100.959 0.211914C104.76 0.211914 107.59 0.916016 109.449 2.32422C111.322 3.71875 112.259 5.87891 112.259 8.80469C112.259 11.0742 111.404 13.0156 109.695 14.6289C109.135 15.1484 108.492 15.5996 107.768 15.9824L111.951 24.8008C112.771 26.6191 113.4 27.6992 113.838 28.041L113.735 28.1436C112.409 27.9248 110.324 27.9316 107.48 28.1641L102.723 17.3975ZM101.349 5.05176C100.651 5.05176 99.9814 5.08594 99.3389 5.1543V12.9883C100.009 13.084 100.795 13.1318 101.697 13.1318C102.6 13.1318 103.358 13.0566 103.974 12.9062C104.589 12.7422 105.122 12.4961 105.573 12.168C106.544 11.4434 107.029 10.3564 107.029 8.90723C107.029 7.45801 106.523 6.43945 105.512 5.85156C104.568 5.31836 103.181 5.05176 101.349 5.05176ZM134.858 2.24219L134.469 8.27148L134.325 8.3125C133.313 6.79492 131.591 5.81055 129.157 5.35938C128.392 5.20898 127.653 5.13379 126.942 5.13379C126.245 5.13379 125.644 5.19531 125.138 5.31836C124.646 5.44141 124.222 5.61914 123.866 5.85156C123.114 6.34375 122.738 6.98633 122.738 7.7793C122.738 8.81836 123.066 9.59766 123.723 10.1172C124.543 10.7461 125.903 11.1904 127.804 11.4502C129.704 11.6963 131.229 12.0381 132.377 12.4756C133.525 12.9131 134.469 13.4668 135.207 14.1367C136.602 15.3945 137.299 17.1719 137.299 19.4688C137.299 22.4766 136.164 24.7939 133.895 26.4209C131.953 27.8154 129.506 28.5127 126.553 28.5127C124.174 28.5127 121.822 28.0615 119.498 27.1592C118.732 26.8584 118.062 26.5098 117.488 26.1133L117.714 19.2637L117.796 19.2021C119.491 22.1279 122.273 23.5908 126.143 23.5908C128.891 23.5908 130.709 22.9277 131.598 21.6016C131.898 21.1504 132.049 20.6514 132.049 20.1045C132.049 19.5439 131.96 19.0859 131.782 18.7305C131.604 18.3613 131.311 18.0469 130.9 17.7871C130.107 17.2676 128.774 16.9189 126.901 16.7412C125.028 16.5635 123.497 16.2285 122.308 15.7363C121.118 15.2441 120.168 14.6357 119.457 13.9111C118.172 12.5986 117.529 10.7666 117.529 8.41504C117.529 5.98145 118.384 4.0127 120.093 2.50879C121.829 0.977539 124.167 0.211914 127.106 0.211914C130.06 0.211914 132.644 0.888672 134.858 2.24219ZM148.414 28.123C147.102 28.041 145.543 28 143.738 28H143.082V0.62207C143.93 0.69043 144.531 0.724609 144.887 0.724609H145.728C146.808 0.724609 147.703 0.669922 148.414 0.560547V11.4912H158.053V0.62207C159.188 0.69043 160.288 0.724609 161.354 0.724609C162.435 0.724609 163.111 0.669922 163.385 0.560547V28.123C162.729 28.041 161.43 28 159.488 28H158.053V16.4131H148.414V28.123ZM173.085 24.7598C171.841 23.5703 170.856 22.1416 170.132 20.4736C169.421 18.8057 169.065 16.9805 169.065 14.998C169.065 13.002 169.4 11.1152 170.07 9.33789C170.74 7.56055 171.697 5.99512 172.941 4.6416C174.186 3.28809 175.689 2.21484 177.453 1.42188C179.217 0.615234 181.192 0.211914 183.38 0.211914C187.153 0.211914 190.332 1.40137 192.916 3.78027C195.678 6.32324 197.059 9.75488 197.059 14.0752C197.059 18.2588 195.637 21.7383 192.793 24.5137C191.043 26.2227 188.958 27.3984 186.538 28.041C185.349 28.3555 183.954 28.5127 182.354 28.5127C180.769 28.5127 179.135 28.1846 177.453 27.5283C175.785 26.8721 174.329 25.9492 173.085 24.7598ZM174.767 14.7109C174.767 15.9824 174.979 17.1514 175.402 18.2178C175.826 19.2842 176.414 20.2002 177.166 20.9658C178.766 22.5791 180.823 23.3857 183.339 23.3857C185.731 23.3857 187.652 22.6133 189.102 21.0684C190.578 19.4688 191.316 17.2881 191.316 14.5264C191.316 11.9287 190.612 9.76172 189.204 8.02539C187.687 6.16602 185.608 5.23633 182.97 5.23633C180.413 5.23633 178.383 6.17969 176.879 8.06641C175.471 9.83008 174.767 12.0449 174.767 14.7109ZM201.96 0.581055C203.86 0.334961 205.809 0.211914 207.805 0.211914C211.523 0.211914 214.347 1.08691 216.274 2.83691C218.216 4.57324 219.187 7.17773 219.187 10.6504C219.187 13.7539 218.127 16.208 216.008 18.0127C214.025 19.708 211.476 20.5557 208.358 20.5557C208.003 20.5557 207.613 20.5352 207.189 20.4941V28H201.96V0.581055ZM208.42 5.1543C208.01 5.1543 207.6 5.16797 207.189 5.19531V15.9824C207.627 16.0371 208.16 16.0645 208.789 16.0645C209.418 16.0645 210.074 15.9346 210.758 15.6748C211.441 15.4014 212.016 15.0254 212.48 14.5469C213.451 13.5488 213.937 12.2363 213.937 10.6094C213.937 6.97266 212.098 5.1543 208.42 5.1543Z" fill="white"/>
</svg>
